<mxfile host="app.diagrams.net" agent="Mozilla/5.0 (Windows NT 10.0; Win64; x64) AppleWebKit/537.36 (KHTML, like Gecko) Chrome/134.0.0.0 Safari/537.36 Edg/134.0.0.0" version="24.9.0">
  <diagram name="Página-1" id="jSSVgw1OOYyVKvKyTTR9">
    <mxGraphModel grid="1" page="1" gridSize="10" guides="1" tooltips="1" connect="1" arrows="1" fold="1" pageScale="1" pageWidth="827" pageHeight="1169" math="0" shadow="0">
      <root>
        <mxCell id="0" />
        <mxCell id="1" parent="0" />
        <mxCell id="Cl_mOqH0bbV6e4VVe6_J-1" value="" style="rounded=0;whiteSpace=wrap;html=1;" vertex="1" parent="1">
          <mxGeometry x="80" y="280" width="380" height="120" as="geometry" />
        </mxCell>
        <mxCell id="Cl_mOqH0bbV6e4VVe6_J-2" value="Navegador WEB" style="rounded=0;whiteSpace=wrap;html=1;" vertex="1" parent="1">
          <mxGeometry x="140" y="320" width="120" height="60" as="geometry" />
        </mxCell>
        <mxCell id="Cl_mOqH0bbV6e4VVe6_J-3" value="Aplicativo Mobile" style="rounded=0;whiteSpace=wrap;html=1;" vertex="1" parent="1">
          <mxGeometry x="310" y="320" width="120" height="60" as="geometry" />
        </mxCell>
        <mxCell id="Cl_mOqH0bbV6e4VVe6_J-5" value="" style="rounded=0;whiteSpace=wrap;html=1;align=center;" vertex="1" parent="1">
          <mxGeometry x="340" y="480" width="380" height="120" as="geometry" />
        </mxCell>
        <mxCell id="Cl_mOqH0bbV6e4VVe6_J-6" value="Cloud Storage" style="rounded=0;whiteSpace=wrap;html=1;" vertex="1" parent="1">
          <mxGeometry x="400" y="520" width="120" height="60" as="geometry" />
        </mxCell>
        <mxCell id="Cl_mOqH0bbV6e4VVe6_J-7" value="Load Balancer" style="rounded=0;whiteSpace=wrap;html=1;" vertex="1" parent="1">
          <mxGeometry x="570" y="520" width="120" height="60" as="geometry" />
        </mxCell>
        <mxCell id="Cl_mOqH0bbV6e4VVe6_J-8" value="" style="rounded=0;whiteSpace=wrap;html=1;" vertex="1" parent="1">
          <mxGeometry x="80" y="480" width="210" height="120" as="geometry" />
        </mxCell>
        <mxCell id="Cl_mOqH0bbV6e4VVe6_J-9" value="FrontEnd(React)" style="rounded=0;whiteSpace=wrap;html=1;" vertex="1" parent="1">
          <mxGeometry x="140" y="520" width="120" height="60" as="geometry" />
        </mxCell>
        <mxCell id="Cl_mOqH0bbV6e4VVe6_J-11" value="" style="rounded=0;whiteSpace=wrap;html=1;" vertex="1" parent="1">
          <mxGeometry x="210" y="680" width="210" height="120" as="geometry" />
        </mxCell>
        <mxCell id="Cl_mOqH0bbV6e4VVe6_J-12" value="BackEnd(Node.js)" style="rounded=0;whiteSpace=wrap;html=1;" vertex="1" parent="1">
          <mxGeometry x="270" y="720" width="120" height="60" as="geometry" />
        </mxCell>
        <mxCell id="Cl_mOqH0bbV6e4VVe6_J-13" value="" style="rounded=0;whiteSpace=wrap;html=1;" vertex="1" parent="1">
          <mxGeometry x="225" y="850" width="180" height="120" as="geometry" />
        </mxCell>
        <mxCell id="Cl_mOqH0bbV6e4VVe6_J-14" value="MongoDB" style="rounded=0;whiteSpace=wrap;html=1;" vertex="1" parent="1">
          <mxGeometry x="255" y="890" width="120" height="60" as="geometry" />
        </mxCell>
        <mxCell id="Cl_mOqH0bbV6e4VVe6_J-15" value="&lt;font style=&quot;font-size: 18px;&quot;&gt;Infraestrutura de Rede&lt;/font&gt;" style="text;html=1;align=center;verticalAlign=middle;whiteSpace=wrap;rounded=0;" vertex="1" parent="1">
          <mxGeometry x="445" y="480" width="185" height="30" as="geometry" />
        </mxCell>
        <mxCell id="Cl_mOqH0bbV6e4VVe6_J-16" value="&lt;font style=&quot;font-size: 18px;&quot;&gt;Infraestrutura de Rede&lt;/font&gt;" style="text;html=1;align=center;verticalAlign=middle;whiteSpace=wrap;rounded=0;" vertex="1" parent="1">
          <mxGeometry x="177.5" y="280" width="185" height="30" as="geometry" />
        </mxCell>
        <mxCell id="Cl_mOqH0bbV6e4VVe6_J-17" value="&lt;font style=&quot;font-size: 18px;&quot;&gt;Servidor Web&lt;/font&gt;" style="text;html=1;align=center;verticalAlign=middle;whiteSpace=wrap;rounded=0;" vertex="1" parent="1">
          <mxGeometry x="92.5" y="480" width="185" height="30" as="geometry" />
        </mxCell>
        <mxCell id="Cl_mOqH0bbV6e4VVe6_J-18" value="&lt;font style=&quot;font-size: 18px;&quot;&gt;Servidor de Aplicação&lt;/font&gt;" style="text;html=1;align=center;verticalAlign=middle;whiteSpace=wrap;rounded=0;" vertex="1" parent="1">
          <mxGeometry x="222.5" y="680" width="185" height="30" as="geometry" />
        </mxCell>
        <mxCell id="Cl_mOqH0bbV6e4VVe6_J-19" value="&lt;font style=&quot;font-size: 18px;&quot;&gt;Banco de Dados&lt;/font&gt;" style="text;html=1;align=center;verticalAlign=middle;whiteSpace=wrap;rounded=0;" vertex="1" parent="1">
          <mxGeometry x="225" y="850" width="185" height="30" as="geometry" />
        </mxCell>
        <mxCell id="Cl_mOqH0bbV6e4VVe6_J-20" value="" style="endArrow=classic;html=1;rounded=0;exitX=0.5;exitY=1;exitDx=0;exitDy=0;entryX=0.637;entryY=-0.01;entryDx=0;entryDy=0;entryPerimeter=0;" edge="1" parent="1" source="Cl_mOqH0bbV6e4VVe6_J-12" target="Cl_mOqH0bbV6e4VVe6_J-14">
          <mxGeometry width="50" height="50" relative="1" as="geometry">
            <mxPoint x="390" y="780" as="sourcePoint" />
            <mxPoint x="440" y="730" as="targetPoint" />
          </mxGeometry>
        </mxCell>
        <mxCell id="Cl_mOqH0bbV6e4VVe6_J-21" value="" style="endArrow=classic;html=1;rounded=0;exitX=0.75;exitY=0;exitDx=0;exitDy=0;entryX=0;entryY=1;entryDx=0;entryDy=0;" edge="1" parent="1" source="Cl_mOqH0bbV6e4VVe6_J-12" target="Cl_mOqH0bbV6e4VVe6_J-6">
          <mxGeometry width="50" height="50" relative="1" as="geometry">
            <mxPoint x="340" y="770" as="sourcePoint" />
            <mxPoint x="341" y="879" as="targetPoint" />
            <Array as="points" />
          </mxGeometry>
        </mxCell>
        <mxCell id="Cl_mOqH0bbV6e4VVe6_J-22" value="" style="endArrow=classic;html=1;rounded=0;exitX=0.365;exitY=0.997;exitDx=0;exitDy=0;entryX=1;entryY=0.25;entryDx=0;entryDy=0;exitPerimeter=0;" edge="1" parent="1" source="Cl_mOqH0bbV6e4VVe6_J-7" target="Cl_mOqH0bbV6e4VVe6_J-11">
          <mxGeometry width="50" height="50" relative="1" as="geometry">
            <mxPoint x="370" y="710" as="sourcePoint" />
            <mxPoint x="410" y="590" as="targetPoint" />
            <Array as="points" />
          </mxGeometry>
        </mxCell>
        <mxCell id="Cl_mOqH0bbV6e4VVe6_J-23" value="" style="endArrow=classic;html=1;rounded=0;exitX=0.25;exitY=1;exitDx=0;exitDy=0;entryX=0;entryY=0;entryDx=0;entryDy=0;" edge="1" parent="1" source="Cl_mOqH0bbV6e4VVe6_J-9" target="Cl_mOqH0bbV6e4VVe6_J-12">
          <mxGeometry width="50" height="50" relative="1" as="geometry">
            <mxPoint x="370" y="730" as="sourcePoint" />
            <mxPoint x="410" y="590" as="targetPoint" />
            <Array as="points" />
          </mxGeometry>
        </mxCell>
        <mxCell id="Cl_mOqH0bbV6e4VVe6_J-24" value="" style="endArrow=classic;html=1;rounded=0;exitX=0;exitY=1;exitDx=0;exitDy=0;entryX=1;entryY=0;entryDx=0;entryDy=0;" edge="1" parent="1" source="Cl_mOqH0bbV6e4VVe6_J-3" target="Cl_mOqH0bbV6e4VVe6_J-9">
          <mxGeometry width="50" height="50" relative="1" as="geometry">
            <mxPoint x="380" y="740" as="sourcePoint" />
            <mxPoint x="420" y="600" as="targetPoint" />
            <Array as="points" />
          </mxGeometry>
        </mxCell>
        <mxCell id="Cl_mOqH0bbV6e4VVe6_J-25" value="" style="endArrow=classic;html=1;rounded=0;exitX=0.5;exitY=1;exitDx=0;exitDy=0;entryX=0.5;entryY=0;entryDx=0;entryDy=0;" edge="1" parent="1" source="Cl_mOqH0bbV6e4VVe6_J-2" target="Cl_mOqH0bbV6e4VVe6_J-9">
          <mxGeometry width="50" height="50" relative="1" as="geometry">
            <mxPoint x="390" y="750" as="sourcePoint" />
            <mxPoint x="430" y="610" as="targetPoint" />
            <Array as="points" />
          </mxGeometry>
        </mxCell>
        <mxCell id="Cl_mOqH0bbV6e4VVe6_J-26" value="" style="endArrow=classic;html=1;rounded=0;exitX=0.5;exitY=0;exitDx=0;exitDy=0;entryX=1;entryY=0.25;entryDx=0;entryDy=0;" edge="1" parent="1" source="Cl_mOqH0bbV6e4VVe6_J-7" target="Cl_mOqH0bbV6e4VVe6_J-8">
          <mxGeometry width="50" height="50" relative="1" as="geometry">
            <mxPoint x="400" y="760" as="sourcePoint" />
            <mxPoint x="440" y="620" as="targetPoint" />
            <Array as="points">
              <mxPoint x="630" y="440" />
              <mxPoint x="460" y="440" />
              <mxPoint x="360" y="440" />
              <mxPoint x="320" y="440" />
              <mxPoint x="320" y="510" />
            </Array>
          </mxGeometry>
        </mxCell>
      </root>
    </mxGraphModel>
  </diagram>
</mxfile>
